<?xml version="1.0" encoding="UTF-8"?>
<svg xmlns="http://www.w3.org/2000/svg" width="869" height="765" viewBox="0 0 869 765" fill="none">
  <g opacity="0.5">
    <path d="M531.279 759.24C531.279 759.24 573.996 742.577 596.355 676.065C617.891 717.084 613.248 758.886 613.248 758.886C594.266 762.635 531.279 759.24 531.279 759.24ZM755.394 380.186C755.394 380.186 784.154 514.904 691.235 518.191C601.575 521.342 556.953 394.036 556.953 394.036C556.953 394.036 583.261 641.958 708.765 627.389C850.059 611.025 755.402 380.186 755.402 380.186L755.394 380.186ZM78.7178 720.994C78.7815 720.964 78.8619 720.965 78.8619 720.965C183.314 699.994 261.554 586.185 284.251 540.38L298.706 511.377L308.312 542.781C308.785 544.477 319.206 579.119 320.055 624.648C320.149 629.703 320.109 634.869 319.917 640.108C356.119 641.893 381.813 635.364 397.597 619.919C420.239 597.878 426.358 555.591 416.586 490.683C411.758 459.633 398.651 410.163 387.017 366.475C381.059 344.143 375.452 323.023 372.009 308.094C350.021 212.644 374.026 153.885 398.007 121.432C401.796 116.371 405.911 111.537 410.332 106.957C338.137 128.844 277.951 163.659 216.245 221.691L261.314 270.398L279.079 254.769C297.306 314.756 286.039 369.597 286.039 369.597C262.177 336.042 234.269 308.714 234.269 308.714L245.888 289.959L205.268 245.975L200.574 241.052C152.807 303.494 137.934 354.905 137.934 354.905L173.198 385.248L193.733 402.721L200.196 384.507C238.779 450.645 205.801 511.496 205.801 511.496C199.27 489.058 174.045 455.65 174.045 455.65L183.205 425.699L130.694 381.074C79.8997 537.939 9.07412 588.015 9.07412 588.015C9.07412 588.015 86.4718 575.953 129.49 562.914C129.49 562.914 129.85 645.973 78.7178 720.994Z" fill="#E8E8E8"></path>
    <path d="M487.125 238.261C512.721 222.845 556.546 211.329 597.939 214.656C608.407 215.473 617.214 213.212 605.847 207.876C574.665 193.288 502.693 197.097 477.475 211.847C437.117 235.472 444.835 278.671 445.786 279.724C453.701 267.485 467.181 250.239 487.116 238.268L487.125 238.261ZM858.113 193.285L729.838 196.218C730.15 209.344 728.395 222.636 723.717 235.151C736.543 280.855 728.675 305.437 728.675 305.437C706.389 261.71 689.832 249.427 689.832 249.427C571.077 202.287 506.76 304.266 515.104 370.749C521.898 425.382 546.046 498.101 565.917 611.953C582.66 707.75 527.726 748.295 463.838 756.889C462.428 757.037 461.026 757.229 459.636 757.466C459.27 757.461 458.971 757.457 458.64 757.524C447.692 758.567 436.643 758.889 425.587 758.488C425.211 758.381 424.729 758.375 424.355 758.369C423.05 758.351 421.817 758.175 420.528 758.157C415.537 757.828 410.607 757.297 405.728 756.724C355.755 750.042 243.803 730.873 128.452 726.843C195.641 693.38 247.591 634.516 276.418 592.727C278.356 604.453 279.994 618.746 280.287 634.45C280.433 642.281 280.287 650.519 279.513 658.921L278.614 670.42L291.914 671.565C345.049 676.312 382.503 668.044 406.687 646.368C436.242 619.553 444.655 574.318 433.153 503.804C428.181 472.898 414.373 424.855 402.324 382.499C396.312 361.306 390.611 341.187 387.119 327.301C366.486 243.893 388.352 193.731 410.344 166.364C427.46 144.944 451.467 129.375 477.963 122.11C478.402 122.051 478.849 121.956 479.33 121.905L520.986 5.64432L534.75 5.83563L507.421 117.739C514.209 116.8 521.115 115.95 528.088 115.116L563.991 12.0989L577.622 12.2883L554.698 112.214C593.806 108.396 636.231 105.591 683.276 103.241C690.947 105.998 699.36 113.777 706.807 124.547L829.725 93.2523L834.512 104.888L717.164 143.049C718.134 145.171 719.106 147.38 719.888 149.622L848.739 137.475L851.124 149.54L726.25 169.527C726.737 171.57 727.149 173.612 727.594 175.662L857.953 181.121L858.113 193.285Z" fill="#E8E8E8"></path>
    <path d="M487.125 238.261C512.721 222.845 556.546 211.329 597.939 214.656C608.407 215.473 617.214 213.212 605.847 207.876C574.665 193.288 502.693 197.097 477.475 211.847C437.117 235.472 444.835 278.671 445.786 279.724C453.701 267.485 467.181 250.239 487.116 238.268L487.125 238.261ZM858.113 193.285L729.838 196.218C730.15 209.344 728.395 222.636 723.717 235.151C736.543 280.855 728.675 305.437 728.675 305.437C706.389 261.71 689.832 249.427 689.832 249.427C571.077 202.287 506.76 304.266 515.104 370.749C521.898 425.382 546.046 498.101 565.917 611.953C582.66 707.75 527.726 748.295 463.838 756.889C462.428 757.037 461.026 757.229 459.636 757.466C459.27 757.461 458.971 757.457 458.64 757.524C447.692 758.567 436.643 758.889 425.587 758.488C425.211 758.381 424.729 758.375 424.355 758.369C423.05 758.351 421.817 758.175 420.528 758.157C415.537 757.828 410.607 757.297 405.728 756.724C355.755 750.042 243.803 730.873 128.452 726.843C195.641 693.38 247.591 634.516 276.418 592.727C278.356 604.453 279.994 618.746 280.287 634.45C280.433 642.281 280.287 650.519 279.513 658.921L278.614 670.42L291.914 671.565C345.049 676.312 382.503 668.044 406.687 646.368C436.242 619.553 444.655 574.318 433.153 503.804C428.181 472.898 414.373 424.855 402.324 382.499C396.312 361.306 390.611 341.187 387.119 327.301C366.486 243.893 388.352 193.731 410.344 166.364C427.46 144.944 451.467 129.375 477.963 122.11C478.402 122.051 478.849 121.956 479.33 121.905L520.986 5.64432L534.75 5.83563L507.421 117.739C514.209 116.8 521.115 115.95 528.088 115.116L563.991 12.0989L577.622 12.2883L554.698 112.214C593.806 108.396 636.231 105.591 683.276 103.241C690.947 105.998 699.36 113.777 706.807 124.547L829.725 93.2523L834.512 104.888L717.164 143.049C718.134 145.171 719.106 147.38 719.888 149.622L848.739 137.475L851.124 149.54L726.25 169.527C726.737 171.57 727.149 173.612 727.594 175.662L857.953 181.121L858.113 193.285Z" fill="#E8E8E8"></path>
  </g>
</svg>
