<svg width="45" height="41" viewBox="0 0 45 41" fill="none" xmlns="http://www.w3.org/2000/svg">
<path d="M5 9H16M5 13.6667H16M5 18.3333H16M5 23H16" stroke="#CA1237" stroke-width="1.5" stroke-linecap="round"/>
<path d="M30 9H40M30 13.6667H40M30 18.3333H40M30 23H40" stroke="#CA1237" stroke-width="1.5" stroke-linecap="round"/>
<mask id="path-3-inside-1_412_309" fill="white">
<path fill-rule="evenodd" clip-rule="evenodd" d="M28.0383 0H18V40.9998L23.0189 36.0303L28.0383 41.0002V0Z"/>
</mask>
<path d="M18 0V-1.7H16.3V0H18ZM28.0383 0H29.7383V-1.7H28.0383V0ZM18 40.9998H16.3V45.0754L19.1961 42.2078L18 40.9998ZM23.0189 36.0303L24.2151 34.8223L23.0189 33.6379L21.8228 34.8223L23.0189 36.0303ZM28.0383 41.0002L26.8422 42.2082L29.7383 45.0758V41.0002H28.0383ZM18 1.7H28.0383V-1.7H18V1.7ZM19.7 40.9998V0H16.3V40.9998H19.7ZM19.1961 42.2078L24.2151 37.2383L21.8228 34.8223L16.8039 39.7918L19.1961 42.2078ZM21.8228 37.2383L26.8422 42.2082L29.2344 39.7922L24.2151 34.8223L21.8228 37.2383ZM26.3383 0V41.0002H29.7383V0H26.3383Z" fill="#CA1237" mask="url(#path-3-inside-1_412_309)"/>
<path fill-rule="evenodd" clip-rule="evenodd" d="M2 30V2H18V0H1C0.447715 0 0 0.447715 0 1V31C0 31.5523 0.447715 32 1 32H18V30H2ZM28 30V32H44C44.5523 32 45 31.5523 45 31V1C45 0.447715 44.5523 0 44 0H28V2H43V30H28Z" fill="#CA1237"/>
</svg>
