<svg width="75" height="108" viewBox="0 0 75 108" fill="none" xmlns="http://www.w3.org/2000/svg">
<path d="M52.1568 26.4047C49.7717 27.0215 47.4049 27.6335 45.0197 28.2503C44.6528 28.3452 44.3042 28.4353 43.9372 28.5302C34.8553 30.8788 25.7918 33.2226 16.7099 35.5711C16.1411 35.7182 15.7896 36.3649 15.9325 36.9604C19.3309 51.126 22.7336 65.3098 26.132 79.4754C26.2792 80.089 26.8775 80.4709 27.4463 80.3238C36.1796 78.0654 44.8945 75.8118 53.6278 73.5534C54.1473 75.7188 54.6625 77.8662 55.182 80.0317C55.3682 80.8076 56.4587 81.2922 56.9937 80.5981C57.5847 79.8128 58.1757 79.0275 58.7894 78.2556C59.2359 77.6801 59.6641 77.1094 60.1106 76.534C60.2314 76.3878 60.403 76.2093 60.5421 76.0583C60.6695 76.102 60.7786 76.1505 60.8693 76.2037C61.4589 76.5495 62.1369 76.7766 62.7502 77.0588C63.7133 77.4997 64.6764 77.9406 65.6212 78.3862C66.1481 78.6332 66.5582 78.3931 66.7695 77.9743C66.9647 77.7322 67.0606 77.4007 66.9653 77.0037C66.4458 74.8383 65.9306 72.6909 65.4111 70.5254C74.016 68.3002 82.6209 66.075 91.2074 63.8546C91.5193 63.7739 91.7092 63.5907 91.831 63.3675C91.8451 63.3447 91.8451 63.3447 91.8591 63.3219L91.8731 63.2992C91.9949 63.076 92.0444 62.7949 91.9665 62.4701C88.5681 48.3044 85.1653 34.1207 81.7669 19.955C81.6197 19.3415 81.0215 18.9596 80.4527 19.1066C71.4992 21.422 62.5457 23.7373 53.6106 26.0479C53.1292 26.1532 52.6339 26.2813 52.1568 26.4047ZM53.091 71.3157C44.7063 73.484 36.3399 75.6475 27.9552 77.8157C24.7343 64.3899 21.5134 50.9641 18.2968 37.5564C26.6815 35.3881 35.0479 33.2246 43.4326 31.0563C46.6535 44.4821 49.8701 57.8899 53.091 71.3157ZM64.3186 75.3117C63.0283 74.7255 61.7336 74.1212 60.4434 73.5349C60.1162 73.3895 59.6025 73.5224 59.3976 73.8053C58.5088 74.9742 57.6342 76.1204 56.7455 77.2893C53.005 61.698 49.2646 46.1067 45.5285 30.5335C45.5469 30.5288 45.5469 30.5288 45.5652 30.524C47.9504 29.9072 50.3172 29.2952 52.7023 28.6784C52.8491 28.6404 52.9775 28.6072 53.1243 28.5693C56.8377 44.1292 60.5781 59.7204 64.3186 75.3117ZM55.1932 28.0151C63.4495 25.88 71.7058 23.745 79.9437 21.6147C83.1646 35.0405 86.3856 48.4663 89.6021 61.8741C81.3459 64.0091 73.0896 66.1442 64.8516 68.2745C61.6307 54.8487 58.4141 41.4409 55.1932 28.0151Z" fill="#CA1237"/>
<path d="M25.5816 46.8849C30.4989 45.6133 35.4346 44.3369 40.3519 43.0653C41.251 42.8328 40.8915 41.3345 39.9925 41.567C35.0751 42.8386 30.1395 44.1149 25.2221 45.3865C24.3231 45.619 24.6825 47.1174 25.5816 46.8849Z" fill="#CA1237"/>
<path d="M27.0967 53.2005C32.0141 51.9289 36.9498 50.6525 41.8671 49.3809C42.7661 49.1484 42.4067 47.65 41.5076 47.8825C36.5903 49.1541 31.6546 50.4305 26.7373 51.7021C25.8382 51.9346 26.1977 53.433 27.0967 53.2005Z" fill="#CA1237"/>
<path d="M28.6119 59.5166C33.5292 58.2449 38.4648 56.9685 43.3821 55.6969C44.2811 55.4644 43.9217 53.9661 43.0226 54.1986C38.1054 55.4703 33.1697 56.7466 28.2525 58.0183C27.3491 58.2327 27.7128 59.7491 28.6119 59.5166Z" fill="#CA1237"/>
<path d="M30.1231 65.8144C35.0404 64.5428 39.976 63.2665 44.8933 61.9949C45.7924 61.7624 45.433 60.2641 44.5339 60.4966C39.6166 61.7682 34.6809 63.0445 29.7636 64.3161C28.8646 64.5486 29.224 66.0469 30.1231 65.8144Z" fill="#CA1237"/>
<path d="M77.4572 31.8782C72.5399 33.1499 67.6043 34.4263 62.687 35.6979C61.7879 35.9304 62.1474 37.4288 63.0464 37.1962C67.9637 35.9246 72.8994 34.6482 77.8166 33.3766C78.7157 33.144 78.3563 31.6457 77.4572 31.8782Z" fill="#CA1237"/>
<path d="M78.973 38.1944C74.0556 39.4659 69.12 40.7422 64.2026 42.0138C63.3036 42.2463 63.663 43.7447 64.5621 43.5122C69.4794 42.2406 74.4151 40.9643 79.3325 39.6928C80.2315 39.4603 79.8721 37.9619 78.973 38.1944Z" fill="#CA1237"/>
<path d="M80.4841 44.4921C75.5668 45.7638 70.6311 47.0402 65.7138 48.3118C64.8148 48.5443 65.1742 50.0426 66.0733 49.8101C70.9906 48.5385 75.9262 47.2621 80.8435 45.9904C81.7469 45.776 81.3832 44.2596 80.4841 44.4921Z" fill="#CA1237"/>
<path d="M81.9992 50.8082C77.0819 52.0798 72.1463 53.3562 67.229 54.6279C66.3299 54.8604 66.6894 56.3587 67.5884 56.1262C72.5057 54.8546 77.4414 53.5782 82.3587 52.3065C83.2577 52.074 82.8983 50.5757 81.9992 50.8082Z" fill="#CA1237"/>
</svg>
