<svg width="42" height="68" viewBox="0 0 42 68" fill="none" xmlns="http://www.w3.org/2000/svg">
<path d="M7.43172 32.6362C7.375 34.5609 7.46423 36.2858 7.95081 38.7864C8.94222 43.1687 11.3558 49.2001 12.2062 51.2356C11.7704 51.7661 11.5423 52.375 11.5221 53.0624C11.4978 53.8873 11.7532 54.7251 12.2945 55.3696C11.7168 55.9624 11.4147 56.7056 11.3904 57.5305C11.362 58.4928 11.7553 59.4059 12.3666 60.0536C11.8608 60.5809 11.5587 61.3241 11.5364 62.0802C11.4797 64.0049 13.1117 65.6636 15.2099 65.7607L28.9121 66.6012L28.982 66.6044C30.0311 66.6529 31.0225 66.2858 31.8121 65.634C32.4598 65.0445 32.9037 64.239 32.9301 63.3454C32.9584 62.3831 32.5651 61.47 31.9539 60.8223C32.4597 60.295 32.7617 59.5518 32.784 58.7957C32.8083 57.9708 32.5529 57.133 32.0116 56.4884C32.5893 55.8957 32.8914 55.1525 32.9157 54.3276C32.94 53.5027 32.6146 52.6617 32.1433 52.0204C33.1852 49.9347 35.9432 44.2803 37.1179 40.067C37.8203 37.6215 37.9409 35.9063 37.9976 33.9816C38.2428 25.6641 31.5872 18.6105 23.1244 18.2189C14.7296 17.8994 7.67687 24.3187 7.43172 32.6362ZM30.322 63.9131C30.0341 64.1751 29.6084 64.3619 29.1209 64.2705L15.4187 63.43C14.5794 63.3912 13.8962 62.8089 13.9164 62.1215C13.9306 61.6403 14.3644 61.1786 14.998 61.0702C15.5615 60.9586 15.9254 60.4936 15.8717 59.9405C15.8879 59.3906 15.4804 58.9587 14.9249 58.7954C14.2296 58.6255 13.6842 58.1184 13.7025 57.4998C13.7167 57.0186 14.1505 56.5569 14.7141 56.4453C15.2077 56.3304 15.5716 55.8654 15.5858 55.3843C15.5999 54.9031 15.2644 54.4057 14.7789 54.2456C14.2254 54.0135 13.818 53.5816 13.8342 53.0317C13.8402 52.8255 13.9163 52.6225 13.9902 52.4883L30.2164 53.239C30.4201 53.455 30.5519 53.7364 30.5438 54.0113C30.5296 54.4925 30.0978 54.8855 29.5322 55.0659C29.0386 55.1807 28.6767 55.577 28.6605 56.1269C28.6463 56.6081 28.9819 57.1054 29.4674 57.2655C30.0208 57.4976 30.4283 57.9295 30.4121 58.4794C30.3979 58.9606 29.9641 59.4224 29.3306 59.5307C28.767 59.6423 28.4031 60.1073 28.4569 60.6605C28.4407 61.2104 28.8481 61.6422 29.4036 61.8056C30.099 61.9754 30.6443 62.4825 30.6261 63.1011C30.6839 63.5168 30.4659 63.7821 30.322 63.9131ZM23.1255 20.5593C30.2594 20.8894 35.9662 26.8666 35.7575 33.9468C35.7049 35.734 35.5204 37.2398 34.964 39.4855C33.7933 43.5614 31.0353 49.2158 30.0673 51.1671L14.4007 50.4423C13.5482 48.4755 11.1327 42.5129 10.2051 38.34C9.71245 36.0457 9.61714 34.527 9.66981 32.7397C9.94843 25.6628 15.9216 20.226 23.1255 20.5593Z" fill="#CA1237"/>
<path d="M11.0324 17.9429L2.54395 10.0032" stroke="#CA1237" stroke-width="3" stroke-linecap="round"/>
<path d="M31.5226 16.9686L39.1885 8.23199" stroke="#CA1237" stroke-width="3" stroke-linecap="round"/>
<path d="M22.0605 13.542L21.3818 1.9389" stroke="#CA1237" stroke-width="3" stroke-linecap="round"/>
<path d="M14.5588 30.8731C15.2569 30.9744 15.9033 30.4532 15.9235 29.7651C15.9336 29.4211 16.0117 29.1492 16.0919 28.8084C16.7127 26.7704 18.4174 26.0226 19.7558 25.809C20.39 25.7006 20.8101 25.7201 20.8801 25.7233C21.5803 25.7558 22.1586 25.1625 22.1789 24.4745C22.1991 23.7865 21.6551 23.2101 20.885 23.1744C18.5024 23.133 13.8388 24.3637 13.3369 29.5075C13.3887 30.13 13.8606 30.7719 14.5588 30.8731Z" fill="#CA1237"/>
</svg>
