<svg width="807" height="1177" viewBox="0 0 807 1177" fill="none" xmlns="http://www.w3.org/2000/svg">
<path d="M533.82 363.976C571.853 339.907 636.973 321.928 698.479 327.122C714.034 328.398 727.12 324.868 710.23 316.538C663.896 293.763 556.954 299.71 519.482 322.738C459.513 359.621 470.982 427.064 472.394 428.708C484.155 409.6 504.186 382.676 533.808 363.987L533.82 363.976ZM1085.07 293.758L894.469 298.337C894.931 318.829 892.324 339.582 885.373 359.12C904.431 430.474 892.74 468.851 892.74 468.851C859.625 400.584 835.023 381.408 835.023 381.408C658.564 307.812 562.997 467.023 575.395 570.817C585.489 656.11 621.371 769.64 650.898 947.386C675.776 1096.95 594.15 1160.24 499.218 1173.66C497.123 1173.89 495.041 1174.19 492.974 1174.56C492.431 1174.55 491.986 1174.55 491.494 1174.65C475.227 1176.28 458.81 1176.78 442.38 1176.16C441.822 1175.99 441.105 1175.98 440.55 1175.97C438.611 1175.94 436.779 1175.67 434.864 1175.64C427.447 1175.13 420.123 1174.3 412.872 1173.4C338.618 1162.97 172.268 1133.05 0.867995 1126.75C100.704 1074.51 177.896 982.612 220.73 917.371C223.611 935.678 226.044 957.992 226.479 982.509C226.696 994.734 226.48 1007.6 225.33 1020.71L223.994 1038.67L243.756 1040.45C322.71 1047.86 378.363 1034.96 414.297 1001.12C458.213 959.252 470.714 888.63 453.624 778.543C446.236 730.293 425.718 655.288 407.815 589.16C398.881 556.074 390.41 524.664 385.222 502.986C354.563 372.768 387.054 294.455 419.731 251.728C445.165 218.287 480.836 193.982 520.206 182.639C520.859 182.547 521.523 182.399 522.238 182.319L584.135 0.811959L604.587 1.11063L563.979 175.815C574.065 174.35 584.326 173.023 594.687 171.72L648.036 10.8888L668.29 11.1846L634.227 167.19C692.337 161.228 755.377 156.85 825.282 153.181C836.68 157.485 849.181 169.63 860.246 186.444L1042.89 137.586L1050 155.752L875.636 215.329C877.078 218.642 878.522 222.09 879.683 225.591L1071.14 206.627L1074.69 225.463L889.136 256.667C889.859 259.857 890.472 263.045 891.133 266.246L1084.83 274.768L1085.07 293.758Z" fill="#E8E8E8"/>
</svg>
